STARTFONT 2.1
FONT -Monotype-Book Antiqua-Regular-R-Normal--12-120-75-75-P-60-iso8859-4
SIZE 12 75 75
FONTBOUNDINGBOX 16 17 -2 -4

STARTPROPERTIES 24
FOUNDRY "Monotype"
FAMILY_NAME "Book Antiqua"
WEIGHT_NAME "Regular"
SLANT "R"
SETWIDTH_NAME "Normal"
ADD_STYLE_NAME ""
PIXEL_SIZE 12
POINT_SIZE 120
RESOLUTION_X 75
RESOLUTION_Y 75
SPACING "P"
AVERAGE_WIDTH 60
CHARSET_REGISTRY "iso8859"
CHARSET_ENCODING "4"
FACE_NAME "Book Antiqua ISO Latin4"
_DEC_DEVICE_FONTNAMES "PS=bookantiqua-lat4"
COPYRIGHT "Copyright (c) 1994 Monotype Typography Ltd."
CAP_HEIGHT 11
X_HEIGHT 7
WEIGHT 10
QUAD_WIDTH 8
DEFAULT_CHAR 160
FONT_DESCENT 4
FONT_ASCENT 13
ENDPROPERTIES

CHARS 191

STARTCHAR space
ENCODING 32
SWIDTH 250 0
DWIDTH 3 0
BBX 0 0 0 0
BITMAP
ENDCHAR

STARTCHAR exclam
ENCODING 33
SWIDTH 278 0
DWIDTH 4 0
BBX 1 10 2 0
BITMAP
80
80
80
80
80
80
80
00
80
80
ENDCHAR

STARTCHAR quotedbl
ENCODING 34
SWIDTH 371 0
DWIDTH 5 0
BBX 3 4 1 5
BITMAP
A0
A0
A0
A0
ENDCHAR

STARTCHAR numbersign
ENCODING 35
SWIDTH 606 0
DWIDTH 8 0
BBX 8 9 0 0
BITMAP
12
12
12
7F
24
FE
48
48
48
ENDCHAR

STARTCHAR dollar
ENCODING 36
SWIDTH 500 0
DWIDTH 7 0
BBX 5 11 1 -1
BITMAP
20
78
A8
A0
A0
70
28
28
A8
F0
20
ENDCHAR

STARTCHAR percent
ENCODING 37
SWIDTH 840 0
DWIDTH 11 0
BBX 9 9 1 0
BITMAP
6200
9200
9400
9800
6B00
1480
2480
2480
4300
ENDCHAR

STARTCHAR ampersand
ENCODING 38
SWIDTH 778 0
DWIDTH 10 0
BBX 9 9 1 0
BITMAP
1800
2800
2800
3000
5780
8A00
8600
8400
7B80
ENDCHAR

STARTCHAR quoteright
ENCODING 39
SWIDTH 278 0
DWIDTH 4 0
BBX 2 3 1 7
BITMAP
40
40
80
ENDCHAR

STARTCHAR parenleft
ENCODING 40
SWIDTH 333 0
DWIDTH 4 0
BBX 3 13 1 -3
BITMAP
20
40
40
80
80
80
80
80
80
80
40
40
20
ENDCHAR

STARTCHAR parenright
ENCODING 41
SWIDTH 333 0
DWIDTH 4 0
BBX 3 13 1 -3
BITMAP
80
40
40
20
20
20
20
20
20
20
40
40
80
ENDCHAR

STARTCHAR asterisk
ENCODING 42
SWIDTH 389 0
DWIDTH 5 0
BBX 5 4 0 7
BITMAP
20
F8
20
50
ENDCHAR

STARTCHAR plus
ENCODING 43
SWIDTH 606 0
DWIDTH 8 0
BBX 7 7 1 1
BITMAP
10
10
10
FE
10
10
10
ENDCHAR

STARTCHAR comma
ENCODING 44
SWIDTH 250 0
DWIDTH 3 0
BBX 2 3 1 -2
BITMAP
40
40
80
ENDCHAR

STARTCHAR minus
ENCODING 45
SWIDTH 606 0
DWIDTH 8 0
BBX 6 1 1 4
BITMAP
FC
ENDCHAR

STARTCHAR period
ENCODING 46
SWIDTH 250 0
DWIDTH 3 0
BBX 2 1 1 0
BITMAP
C0
ENDCHAR

STARTCHAR slash
ENCODING 47
SWIDTH 606 0
DWIDTH 8 0
BBX 7 13 1 -3
BITMAP
02
02
04
04
08
08
10
10
20
20
40
40
80
ENDCHAR

STARTCHAR zero
ENCODING 48
SWIDTH 500 0
DWIDTH 7 0
BBX 6 9 1 0
BITMAP
30
48
84
84
84
84
84
48
30
ENDCHAR

STARTCHAR one
ENCODING 49
SWIDTH 500 0
DWIDTH 7 0
BBX 5 9 1 0
BITMAP
20
E0
20
20
20
20
20
20
F8
ENDCHAR

STARTCHAR two
ENCODING 50
SWIDTH 500 0
DWIDTH 7 0
BBX 5 9 1 0
BITMAP
70
88
88
08
10
10
20
40
F8
ENDCHAR

STARTCHAR three
ENCODING 51
SWIDTH 500 0
DWIDTH 7 0
BBX 5 9 1 0
BITMAP
70
88
88
08
30
08
88
88
70
ENDCHAR

STARTCHAR four
ENCODING 52
SWIDTH 500 0
DWIDTH 7 0
BBX 6 9 1 0
BITMAP
08
18
28
28
48
88
FC
08
1C
ENDCHAR

STARTCHAR five
ENCODING 53
SWIDTH 500 0
DWIDTH 7 0
BBX 5 9 1 0
BITMAP
F8
80
80
F0
88
08
88
88
70
ENDCHAR

STARTCHAR six
ENCODING 54
SWIDTH 500 0
DWIDTH 7 0
BBX 5 9 1 0
BITMAP
18
20
40
40
F0
88
88
88
70
ENDCHAR

STARTCHAR seven
ENCODING 55
SWIDTH 500 0
DWIDTH 7 0
BBX 6 9 1 0
BITMAP
FC
88
10
10
20
20
40
40
40
ENDCHAR

STARTCHAR eight
ENCODING 56
SWIDTH 500 0
DWIDTH 7 0
BBX 5 9 1 0
BITMAP
70
88
88
88
70
88
88
88
70
ENDCHAR

STARTCHAR nine
ENCODING 57
SWIDTH 500 0
DWIDTH 7 0
BBX 5 9 1 0
BITMAP
70
88
88
88
78
10
10
20
C0
ENDCHAR

STARTCHAR colon
ENCODING 58
SWIDTH 250 0
DWIDTH 3 0
BBX 2 6 1 0
BITMAP
C0
00
00
00
00
C0
ENDCHAR

STARTCHAR semicolon
ENCODING 59
SWIDTH 250 0
DWIDTH 3 0
BBX 2 8 1 -2
BITMAP
C0
00
00
00
00
40
40
80
ENDCHAR

STARTCHAR less
ENCODING 60
SWIDTH 606 0
DWIDTH 8 0
BBX 7 7 1 1
BITMAP
02
0C
30
C0
30
0C
02
ENDCHAR

STARTCHAR equal
ENCODING 61
SWIDTH 606 0
DWIDTH 8 0
BBX 6 3 1 3
BITMAP
FC
00
FC
ENDCHAR

STARTCHAR greater
ENCODING 62
SWIDTH 606 0
DWIDTH 8 0
BBX 7 7 1 1
BITMAP
80
60
18
06
18
60
80
ENDCHAR

STARTCHAR question
ENCODING 63
SWIDTH 444 0
DWIDTH 6 0
BBX 4 10 1 0
BITMAP
E0
90
10
10
20
40
40
00
40
40
ENDCHAR

STARTCHAR at
ENCODING 64
SWIDTH 747 0
DWIDTH 10 0
BBX 9 11 1 -2
BITMAP
1F00
2080
4E80
9280
9280
A480
AD00
B680
8080
4100
3E00
ENDCHAR

STARTCHAR A
ENCODING 65
SWIDTH 778 0
DWIDTH 9 0
BBX 9 9 0 0
BITMAP
0800
0800
1400
1400
2200
3E00
4100
4100
E380
ENDCHAR

STARTCHAR B
ENCODING 66
SWIDTH 611 0
DWIDTH 8 0
BBX 6 9 1 0
BITMAP
F8
44
44
44
78
44
44
44
F8
ENDCHAR

STARTCHAR C
ENCODING 67
SWIDTH 709 0
DWIDTH 9 0
BBX 7 9 1 0
BITMAP
3E
42
80
80
80
80
80
42
3C
ENDCHAR

STARTCHAR D
ENCODING 68
SWIDTH 774 0
DWIDTH 10 0
BBX 8 9 1 0
BITMAP
FC
42
41
41
41
41
41
42
FC
ENDCHAR

STARTCHAR E
ENCODING 69
SWIDTH 611 0
DWIDTH 8 0
BBX 7 9 1 0
BITMAP
FE
42
40
44
7C
44
40
42
FE
ENDCHAR

STARTCHAR F
ENCODING 70
SWIDTH 556 0
DWIDTH 8 0
BBX 7 9 1 0
BITMAP
FE
42
40
44
7C
44
40
40
E0
ENDCHAR

STARTCHAR G
ENCODING 71
SWIDTH 763 0
DWIDTH 10 0
BBX 8 9 1 0
BITMAP
3E
42
80
80
80
87
82
42
3C
ENDCHAR

STARTCHAR H
ENCODING 72
SWIDTH 832 0
DWIDTH 11 0
BBX 9 9 1 0
BITMAP
E380
4100
4100
4100
7F00
4100
4100
4100
E380
ENDCHAR

STARTCHAR I
ENCODING 73
SWIDTH 337 0
DWIDTH 5 0
BBX 3 9 1 0
BITMAP
E0
40
40
40
40
40
40
40
E0
ENDCHAR

STARTCHAR J
ENCODING 74
SWIDTH 333 0
DWIDTH 5 0
BBX 3 12 1 -3
BITMAP
E0
40
40
40
40
40
40
40
40
40
40
80
ENDCHAR

STARTCHAR K
ENCODING 75
SWIDTH 726 0
DWIDTH 9 0
BBX 8 9 1 0
BITMAP
E7
44
48
50
70
48
44
42
E7
ENDCHAR

STARTCHAR L
ENCODING 76
SWIDTH 611 0
DWIDTH 8 0
BBX 7 9 1 0
BITMAP
E0
40
40
40
40
40
40
42
FE
ENDCHAR

STARTCHAR M
ENCODING 77
SWIDTH 946 0
DWIDTH 13 0
BBX 11 9 1 0
BITMAP
C060
60C0
60C0
5140
5140
4A40
4A40
4440
E4E0
ENDCHAR

STARTCHAR N
ENCODING 78
SWIDTH 831 0
DWIDTH 11 0
BBX 9 9 1 0
BITMAP
C380
6100
5100
5100
4900
4500
4500
4300
E100
ENDCHAR

STARTCHAR O
ENCODING 79
SWIDTH 786 0
DWIDTH 10 0
BBX 8 9 1 0
BITMAP
3C
42
81
81
81
81
81
42
3C
ENDCHAR

STARTCHAR P
ENCODING 80
SWIDTH 604 0
DWIDTH 8 0
BBX 7 9 1 0
BITMAP
FC
42
42
42
5C
40
40
40
E0
ENDCHAR

STARTCHAR Q
ENCODING 81
SWIDTH 786 0
DWIDTH 10 0
BBX 8 11 1 -2
BITMAP
3C
42
81
81
81
81
81
42
3C
1C
63
ENDCHAR

STARTCHAR R
ENCODING 82
SWIDTH 668 0
DWIDTH 9 0
BBX 8 9 1 0
BITMAP
FC
42
42
44
58
48
44
42
E7
ENDCHAR

STARTCHAR S
ENCODING 83
SWIDTH 525 0
DWIDTH 8 0
BBX 6 9 1 0
BITMAP
7C
84
80
80
78
04
04
84
F8
ENDCHAR

STARTCHAR T
ENCODING 84
SWIDTH 613 0
DWIDTH 7 0
BBX 7 9 0 0
BITMAP
FE
92
10
10
10
10
10
10
38
ENDCHAR

STARTCHAR U
ENCODING 85
SWIDTH 778 0
DWIDTH 11 0
BBX 9 9 1 0
BITMAP
E380
4100
4100
4100
4100
4100
4100
2200
1C00
ENDCHAR

STARTCHAR V
ENCODING 86
SWIDTH 722 0
DWIDTH 9 0
BBX 9 9 0 0
BITMAP
E380
4100
4100
2200
2200
1400
1400
0800
0800
ENDCHAR

STARTCHAR W
ENCODING 87
SWIDTH 1000 0
DWIDTH 11 0
BBX 11 9 0 0
BITMAP
E4E0
4440
4440
2A80
2A80
2A80
1100
1100
1100
ENDCHAR

STARTCHAR X
ENCODING 88
SWIDTH 667 0
DWIDTH 8 0
BBX 8 9 0 0
BITMAP
E7
42
24
18
18
18
24
42
E7
ENDCHAR

STARTCHAR Y
ENCODING 89
SWIDTH 667 0
DWIDTH 9 0
BBX 9 9 0 0
BITMAP
E380
4100
2200
1400
0800
0800
0800
0800
1C00
ENDCHAR

STARTCHAR Z
ENCODING 90
SWIDTH 667 0
DWIDTH 9 0
BBX 7 9 1 0
BITMAP
FE
82
04
08
10
20
40
82
FE
ENDCHAR

STARTCHAR bracketleft
ENCODING 91
SWIDTH 333 0
DWIDTH 4 0
BBX 2 13 1 -3
BITMAP
C0
80
80
80
80
80
80
80
80
80
80
80
C0
ENDCHAR

STARTCHAR backslash
ENCODING 92
SWIDTH 606 0
DWIDTH 8 0
BBX 7 13 1 -3
BITMAP
80
80
40
40
20
20
10
10
08
08
04
04
02
ENDCHAR

STARTCHAR bracketright
ENCODING 93
SWIDTH 333 0
DWIDTH 4 0
BBX 2 13 1 -3
BITMAP
C0
40
40
40
40
40
40
40
40
40
40
40
C0
ENDCHAR

STARTCHAR asciicircum
ENCODING 94
SWIDTH 606 0
DWIDTH 8 0
BBX 5 5 2 4
BITMAP
20
20
50
50
88
ENDCHAR

STARTCHAR underscore
ENCODING 95
SWIDTH 500 0
DWIDTH 7 0
BBX 7 1 0 -2
BITMAP
FE
ENDCHAR

STARTCHAR quoteleft
ENCODING 96
SWIDTH 278 0
DWIDTH 4 0
BBX 2 3 1 7
BITMAP
40
80
80
ENDCHAR

STARTCHAR a
ENCODING 97
SWIDTH 500 0
DWIDTH 7 0
BBX 6 6 1 0
BITMAP
70
48
38
48
98
6C
ENDCHAR

STARTCHAR b
ENCODING 98
SWIDTH 553 0
DWIDTH 7 0
BBX 7 10 0 0
BITMAP
40
C0
40
40
5C
62
42
42
62
5C
ENDCHAR

STARTCHAR c
ENCODING 99
SWIDTH 444 0
DWIDTH 6 0
BBX 5 6 1 0
BITMAP
78
88
80
80
88
70
ENDCHAR

STARTCHAR d
ENCODING 100
SWIDTH 611 0
DWIDTH 8 0
BBX 7 10 1 0
BITMAP
04
0C
04
04
74
8C
84
84
8C
76
ENDCHAR

STARTCHAR e
ENCODING 101
SWIDTH 479 0
DWIDTH 6 0
BBX 5 6 1 0
BITMAP
70
88
F8
80
88
70
ENDCHAR

STARTCHAR f
ENCODING 102
SWIDTH 333 0
DWIDTH 4 0
BBX 4 10 1 0
BITMAP
30
40
40
40
F0
40
40
40
40
E0
ENDCHAR

STARTCHAR g
ENCODING 103
SWIDTH 556 0
DWIDTH 7 0
BBX 6 9 1 -3
BITMAP
74
88
88
70
80
78
84
84
78
ENDCHAR

STARTCHAR h
ENCODING 104
SWIDTH 582 0
DWIDTH 8 0
BBX 7 10 1 0
BITMAP
40
C0
40
40
58
64
44
44
44
E6
ENDCHAR

STARTCHAR i
ENCODING 105
SWIDTH 291 0
DWIDTH 4 0
BBX 3 9 1 0
BITMAP
C0
00
00
40
C0
40
40
40
E0
ENDCHAR

STARTCHAR j
ENCODING 106
SWIDTH 234 0
DWIDTH 3 0
BBX 2 12 1 -3
BITMAP
C0
00
00
40
C0
40
40
40
40
40
40
80
ENDCHAR

STARTCHAR k
ENCODING 107
SWIDTH 556 0
DWIDTH 7 0
BBX 6 10 1 0
BITMAP
40
C0
40
40
4C
50
60
50
48
EC
ENDCHAR

STARTCHAR l
ENCODING 108
SWIDTH 291 0
DWIDTH 4 0
BBX 3 10 1 0
BITMAP
40
C0
40
40
40
40
40
40
40
E0
ENDCHAR

STARTCHAR m
ENCODING 109
SWIDTH 883 0
DWIDTH 12 0
BBX 11 6 1 0
BITMAP
5980
E640
4440
4440
4440
EE60
ENDCHAR

STARTCHAR n
ENCODING 110
SWIDTH 582 0
DWIDTH 8 0
BBX 7 6 1 0
BITMAP
58
E4
44
44
44
E6
ENDCHAR

STARTCHAR o
ENCODING 111
SWIDTH 546 0
DWIDTH 7 0
BBX 6 6 1 0
BITMAP
78
84
84
84
84
78
ENDCHAR

STARTCHAR p
ENCODING 112
SWIDTH 601 0
DWIDTH 8 0
BBX 7 9 1 -3
BITMAP
5C
E2
42
42
62
5C
40
40
E0
ENDCHAR

STARTCHAR q
ENCODING 113
SWIDTH 560 0
DWIDTH 7 0
BBX 7 9 1 -3
BITMAP
74
8C
84
84
8C
74
04
04
0E
ENDCHAR

STARTCHAR r
ENCODING 114
SWIDTH 395 0
DWIDTH 5 0
BBX 5 6 1 0
BITMAP
58
E8
40
40
40
E0
ENDCHAR

STARTCHAR s
ENCODING 115
SWIDTH 424 0
DWIDTH 6 0
BBX 5 6 1 0
BITMAP
78
88
60
30
88
F0
ENDCHAR

STARTCHAR t
ENCODING 116
SWIDTH 326 0
DWIDTH 5 0
BBX 4 8 1 0
BITMAP
40
40
F0
40
40
40
40
30
ENDCHAR

STARTCHAR u
ENCODING 117
SWIDTH 603 0
DWIDTH 8 0
BBX 7 6 1 0
BITMAP
44
CC
44
44
4C
36
ENDCHAR

STARTCHAR v
ENCODING 118
SWIDTH 565 0
DWIDTH 7 0
BBX 7 6 0 0
BITMAP
EE
44
28
28
10
10
ENDCHAR

STARTCHAR w
ENCODING 119
SWIDTH 834 0
DWIDTH 10 0
BBX 11 6 0 0
BITMAP
E4E0
4440
2A80
2A80
1100
1100
ENDCHAR

STARTCHAR x
ENCODING 120
SWIDTH 516 0
DWIDTH 7 0
BBX 6 6 1 0
BITMAP
EC
48
30
30
48
DC
ENDCHAR

STARTCHAR y
ENCODING 121
SWIDTH 556 0
DWIDTH 7 0
BBX 7 9 0 -3
BITMAP
EE
44
24
28
18
10
10
10
60
ENDCHAR

STARTCHAR z
ENCODING 122
SWIDTH 500 0
DWIDTH 7 0
BBX 6 6 1 0
BITMAP
FC
88
10
20
44
FC
ENDCHAR

STARTCHAR braceleft
ENCODING 123
SWIDTH 333 0
DWIDTH 4 0
BBX 3 13 1 -3
BITMAP
20
40
40
40
40
40
80
40
40
40
40
40
20
ENDCHAR

STARTCHAR bar
ENCODING 124
SWIDTH 606 0
DWIDTH 8 0
BBX 1 13 4 -3
BITMAP
80
80
80
80
80
80
80
80
80
80
80
80
80
ENDCHAR

STARTCHAR braceright
ENCODING 125
SWIDTH 333 0
DWIDTH 4 0
BBX 3 13 1 -3
BITMAP
80
40
40
40
40
40
20
40
40
40
40
40
80
ENDCHAR

STARTCHAR asciitilde
ENCODING 126
SWIDTH 606 0
DWIDTH 8 0
BBX 6 2 1 3
BITMAP
64
98
ENDCHAR

STARTCHAR space
ENCODING 160
SWIDTH 250 0
DWIDTH 4 0
BBX 0 0 0 0
BITMAP
ENDCHAR

STARTCHAR Aogonek
ENCODING 161
SWIDTH 778 0
DWIDTH 9 0
BBX 9 11 0 -2
BITMAP
0800
0800
1400
1400
2200
3E00
4100
4100
E380
0200
0180
ENDCHAR

STARTCHAR afii240
ENCODING 162
SWIDTH 500 0
DWIDTH 7 0
BBX 6 6 0 0
BITMAP
EC
50
60
50
48
EC
ENDCHAR

STARTCHAR Rcommaaccent
ENCODING 163
SWIDTH 668 0
DWIDTH 9 0
BBX 8 13 1 -4
BITMAP
FC
42
42
44
58
48
44
42
E7
00
10
10
20
ENDCHAR

STARTCHAR currency
ENCODING 164
SWIDTH 606 0
DWIDTH 8 0
BBX 7 7 1 1
BITMAP
BA
44
82
82
82
44
BA
ENDCHAR

STARTCHAR Itilde
ENCODING 165
SWIDTH 337 0
DWIDTH 5 0
BBX 5 12 0 0
BITMAP
68
B0
00
70
20
20
20
20
20
20
20
70
ENDCHAR

STARTCHAR Lcommaaccent
ENCODING 166
SWIDTH 611 0
DWIDTH 8 0
BBX 7 13 1 -4
BITMAP
E0
40
40
40
40
40
40
42
FE
00
10
10
20
ENDCHAR

STARTCHAR section
ENCODING 167
SWIDTH 500 0
DWIDTH 7 0
BBX 5 13 1 -3
BITMAP
78
88
80
60
90
88
88
88
48
30
08
88
F0
ENDCHAR

STARTCHAR hungarumlaut
ENCODING 168
SWIDTH 380 0
DWIDTH 5 0
BBX 5 2 0 7
BITMAP
48
90
ENDCHAR

STARTCHAR Scaron
ENCODING 169
SWIDTH 525 0
DWIDTH 8 0
BBX 6 12 1 0
BITMAP
28
10
00
7C
84
80
80
78
04
04
84
F8
ENDCHAR

STARTCHAR Emacron
ENCODING 170
SWIDTH 611 0
DWIDTH 8 0
BBX 7 11 1 0
BITMAP
38
00
FE
42
40
44
7C
44
40
42
FE
ENDCHAR

STARTCHAR Gcommaaccent
ENCODING 171
SWIDTH 763 0
DWIDTH 10 0
BBX 8 13 1 -4
BITMAP
3E
42
80
80
80
87
82
42
3C
00
10
10
20
ENDCHAR

STARTCHAR afii237
ENCODING 172
SWIDTH 611 0
DWIDTH 7 0
BBX 7 9 0 0
BITMAP
FE
92
10
10
7C
10
10
10
38
ENDCHAR

STARTCHAR hyphen
ENCODING 173
SWIDTH 333 0
DWIDTH 4 0
BBX 4 1 0 3
BITMAP
F0
ENDCHAR

STARTCHAR Zcaron
ENCODING 174
SWIDTH 667 0
DWIDTH 9 0
BBX 7 12 1 0
BITMAP
28
10
00
FE
82
04
08
10
20
40
82
FE
ENDCHAR

STARTCHAR macron
ENCODING 175
SWIDTH 333 0
DWIDTH 4 0
BBX 3 1 1 7
BITMAP
E0
ENDCHAR

STARTCHAR degree
ENCODING 176
SWIDTH 401 0
DWIDTH 5 0
BBX 4 4 1 5
BITMAP
60
90
90
60
ENDCHAR

STARTCHAR aogonek
ENCODING 177
SWIDTH 500 0
DWIDTH 7 0
BBX 7 8 1 -2
BITMAP
70
48
38
48
98
6C
08
06
ENDCHAR

STARTCHAR ogonek
ENCODING 178
SWIDTH 313 0
DWIDTH 4 0
BBX 3 2 1 -2
BITMAP
80
60
ENDCHAR

STARTCHAR rcommaaccent
ENCODING 179
SWIDTH 395 0
DWIDTH 5 0
BBX 5 10 1 -4
BITMAP
58
E8
40
40
40
E0
00
40
40
80
ENDCHAR

STARTCHAR acute
ENCODING 180
SWIDTH 333 0
DWIDTH 4 0
BBX 2 2 1 7
BITMAP
40
80
ENDCHAR

STARTCHAR itilde
ENCODING 181
SWIDTH 291 0
DWIDTH 4 0
BBX 5 9 0 0
BITMAP
68
B0
00
20
60
20
20
20
70
ENDCHAR

STARTCHAR lcommaaccent
ENCODING 182
SWIDTH 291 0
DWIDTH 4 0
BBX 3 14 1 -4
BITMAP
40
C0
40
40
40
40
40
40
40
E0
00
40
40
80
ENDCHAR

STARTCHAR caron
ENCODING 183
SWIDTH 333 0
DWIDTH 4 0
BBX 3 2 1 7
BITMAP
A0
40
ENDCHAR

STARTCHAR commaaccent
ENCODING 184
SWIDTH 333 0
DWIDTH 4 0
BBX 2 3 1 -4
BITMAP
40
40
80
ENDCHAR

STARTCHAR scaron
ENCODING 185
SWIDTH 424 0
DWIDTH 6 0
BBX 5 9 1 0
BITMAP
50
20
00
78
88
60
30
88
F0
ENDCHAR

STARTCHAR emacron
ENCODING 186
SWIDTH 479 0
DWIDTH 6 0
BBX 5 8 1 0
BITMAP
70
00
70
88
F8
80
88
70
ENDCHAR

STARTCHAR gcommaaccent
ENCODING 187
SWIDTH 556 0
DWIDTH 7 0
BBX 6 13 1 -3
BITMAP
10
20
20
00
74
88
88
70
80
78
84
84
78
ENDCHAR

STARTCHAR afii253
ENCODING 188
SWIDTH 278 0
DWIDTH 5 0
BBX 4 8 1 0
BITMAP
40
40
F0
40
F0
40
40
30
ENDCHAR

STARTCHAR afii238
ENCODING 189
SWIDTH 728 0
DWIDTH 9 0
BBX 8 9 1 0
BITMAP
DC
62
41
41
41
41
41
49
E6
ENDCHAR

STARTCHAR zcaron
ENCODING 190
SWIDTH 500 0
DWIDTH 7 0
BBX 6 9 1 0
BITMAP
28
10
00
FC
88
10
20
44
FC
ENDCHAR

STARTCHAR afii254
ENCODING 191
SWIDTH 512 0
DWIDTH 7 0
BBX 6 9 1 -3
BITMAP
D8
64
44
44
44
E4
04
24
18
ENDCHAR

STARTCHAR Amacron
ENCODING 192
SWIDTH 778 0
DWIDTH 9 0
BBX 9 11 0 0
BITMAP
1C00
0000
0800
0800
1400
1400
2200
3E00
4100
4100
E380
ENDCHAR

STARTCHAR Aacute
ENCODING 193
SWIDTH 778 0
DWIDTH 9 0
BBX 9 12 0 0
BITMAP
0400
0800
0000
0800
0800
1400
1400
2200
3E00
4100
4100
E380
ENDCHAR

STARTCHAR Acircumflex
ENCODING 194
SWIDTH 778 0
DWIDTH 9 0
BBX 9 12 0 0
BITMAP
0800
1400
0000
0800
0800
1400
1400
2200
3E00
4100
4100
E380
ENDCHAR

STARTCHAR Atilde
ENCODING 195
SWIDTH 778 0
DWIDTH 9 0
BBX 9 12 0 0
BITMAP
1A00
2C00
0000
0800
0800
1400
1400
2200
3E00
4100
4100
E380
ENDCHAR

STARTCHAR Adieresis
ENCODING 196
SWIDTH 778 0
DWIDTH 9 0
BBX 9 11 0 0
BITMAP
1200
0000
0800
0800
1400
1400
2200
3E00
4100
4100
E380
ENDCHAR

STARTCHAR Aring
ENCODING 197
SWIDTH 778 0
DWIDTH 9 0
BBX 9 13 0 0
BITMAP
0800
1400
0800
0000
0800
0800
1400
1400
2200
3E00
4100
4100
E380
ENDCHAR

STARTCHAR AE
ENCODING 198
SWIDTH 944 0
DWIDTH 12 0
BBX 12 9 0 0
BITMAP
0FF0
0610
0A00
0A20
13E0
3E20
2200
4210
E7F0
ENDCHAR

STARTCHAR Iogonek
ENCODING 199
SWIDTH 337 0
DWIDTH 5 0
BBX 4 11 1 -2
BITMAP
E0
40
40
40
40
40
40
40
E0
40
30
ENDCHAR

STARTCHAR Ccaron
ENCODING 200
SWIDTH 709 0
DWIDTH 9 0
BBX 7 12 1 0
BITMAP
14
08
00
3E
42
80
80
80
80
80
42
3C
ENDCHAR

STARTCHAR Eacute
ENCODING 201
SWIDTH 611 0
DWIDTH 8 0
BBX 7 12 1 0
BITMAP
08
10
00
FE
42
40
44
7C
44
40
42
FE
ENDCHAR

STARTCHAR Eogonek
ENCODING 202
SWIDTH 611 0
DWIDTH 8 0
BBX 7 11 1 -2
BITMAP
FE
42
40
44
7C
44
40
42
FE
08
06
ENDCHAR

STARTCHAR Edieresis
ENCODING 203
SWIDTH 611 0
DWIDTH 8 0
BBX 7 11 1 0
BITMAP
24
00
FE
42
40
44
7C
44
40
42
FE
ENDCHAR

STARTCHAR Edotaccent
ENCODING 204
SWIDTH 611 0
DWIDTH 8 0
BBX 7 11 1 0
BITMAP
10
00
FE
42
40
44
7C
44
40
42
FE
ENDCHAR

STARTCHAR Iacute
ENCODING 205
SWIDTH 337 0
DWIDTH 5 0
BBX 3 12 1 0
BITMAP
20
40
00
E0
40
40
40
40
40
40
40
E0
ENDCHAR

STARTCHAR Icircumflex
ENCODING 206
SWIDTH 337 0
DWIDTH 5 0
BBX 3 12 1 0
BITMAP
40
A0
00
E0
40
40
40
40
40
40
40
E0
ENDCHAR

STARTCHAR Imacron
ENCODING 207
SWIDTH 337 0
DWIDTH 5 0
BBX 3 11 1 0
BITMAP
E0
00
E0
40
40
40
40
40
40
40
E0
ENDCHAR

STARTCHAR Eth
ENCODING 208
SWIDTH 774 0
DWIDTH 10 0
BBX 8 9 1 0
BITMAP
FC
42
41
41
F1
41
41
42
FC
ENDCHAR

STARTCHAR Ncommaaccent
ENCODING 209
SWIDTH 831 0
DWIDTH 11 0
BBX 9 13 1 -4
BITMAP
C380
6100
5100
5100
4900
4500
4500
4300
E100
0000
0800
0800
1000
ENDCHAR

STARTCHAR Omacron
ENCODING 210
SWIDTH 786 0
DWIDTH 10 0
BBX 8 11 1 0
BITMAP
1C
00
3C
42
81
81
81
81
81
42
3C
ENDCHAR

STARTCHAR Kcommaaccent
ENCODING 211
SWIDTH 726 0
DWIDTH 9 0
BBX 8 13 1 -4
BITMAP
E7
44
48
50
70
48
44
42
E7
00
10
10
20
ENDCHAR

STARTCHAR Ocircumflex
ENCODING 212
SWIDTH 786 0
DWIDTH 10 0
BBX 8 12 1 0
BITMAP
08
14
00
3C
42
81
81
81
81
81
42
3C
ENDCHAR

STARTCHAR Otilde
ENCODING 213
SWIDTH 786 0
DWIDTH 10 0
BBX 8 12 1 0
BITMAP
1A
2C
00
3C
42
81
81
81
81
81
42
3C
ENDCHAR

STARTCHAR Odieresis
ENCODING 214
SWIDTH 786 0
DWIDTH 10 0
BBX 8 11 1 0
BITMAP
24
00
3C
42
81
81
81
81
81
42
3C
ENDCHAR

STARTCHAR multiply
ENCODING 215
SWIDTH 606 0
DWIDTH 8 0
BBX 5 5 1 2
BITMAP
88
50
20
50
88
ENDCHAR

STARTCHAR Oslash
ENCODING 216
SWIDTH 833 0
DWIDTH 10 0
BBX 8 9 1 0
BITMAP
3D
42
85
89
91
91
A1
42
BC
ENDCHAR

STARTCHAR Uogonek
ENCODING 217
SWIDTH 778 0
DWIDTH 11 0
BBX 9 11 1 -2
BITMAP
E380
4100
4100
4100
4100
4100
4100
2200
1C00
0800
0600
ENDCHAR

STARTCHAR Uacute
ENCODING 218
SWIDTH 778 0
DWIDTH 11 0
BBX 9 12 1 0
BITMAP
0400
0800
0000
E380
4100
4100
4100
4100
4100
4100
2200
1C00
ENDCHAR

STARTCHAR Ucircumflex
ENCODING 219
SWIDTH 778 0
DWIDTH 11 0
BBX 9 12 1 0
BITMAP
0800
1400
0000
E380
4100
4100
4100
4100
4100
4100
2200
1C00
ENDCHAR

STARTCHAR Udieresis
ENCODING 220
SWIDTH 778 0
DWIDTH 11 0
BBX 9 11 1 0
BITMAP
1200
0000
E380
4100
4100
4100
4100
4100
4100
2200
1C00
ENDCHAR

STARTCHAR Utilde
ENCODING 221
SWIDTH 778 0
DWIDTH 11 0
BBX 9 12 1 0
BITMAP
1A00
2C00
0000
E380
4100
4100
4100
4100
4100
4100
2200
1C00
ENDCHAR

STARTCHAR Umacron
ENCODING 222
SWIDTH 778 0
DWIDTH 11 0
BBX 9 11 1 0
BITMAP
1C00
0000
E380
4100
4100
4100
4100
4100
4100
2200
1C00
ENDCHAR

STARTCHAR germandbls
ENCODING 223
SWIDTH 556 0
DWIDTH 7 0
BBX 6 10 0 0
BITMAP
38
44
44
48
D0
48
44
44
54
D8
ENDCHAR

STARTCHAR amacron
ENCODING 224
SWIDTH 500 0
DWIDTH 7 0
BBX 6 8 1 0
BITMAP
70
00
70
48
38
48
98
6C
ENDCHAR

STARTCHAR aacute
ENCODING 225
SWIDTH 500 0
DWIDTH 7 0
BBX 6 9 1 0
BITMAP
10
20
00
70
48
38
48
98
6C
ENDCHAR

STARTCHAR acircumflex
ENCODING 226
SWIDTH 500 0
DWIDTH 7 0
BBX 6 9 1 0
BITMAP
10
28
00
70
48
38
48
98
6C
ENDCHAR

STARTCHAR atilde
ENCODING 227
SWIDTH 500 0
DWIDTH 7 0
BBX 6 9 1 0
BITMAP
34
58
00
70
48
38
48
98
6C
ENDCHAR

STARTCHAR adieresis
ENCODING 228
SWIDTH 500 0
DWIDTH 7 0
BBX 6 8 1 0
BITMAP
48
00
70
48
38
48
98
6C
ENDCHAR

STARTCHAR aring
ENCODING 229
SWIDTH 500 0
DWIDTH 7 0
BBX 6 10 1 0
BITMAP
20
50
20
00
70
48
38
48
98
6C
ENDCHAR

STARTCHAR ae
ENCODING 230
SWIDTH 758 0
DWIDTH 10 0
BBX 9 6 0 0
BITMAP
7700
8880
3F80
C800
9880
6700
ENDCHAR

STARTCHAR iogonek
ENCODING 231
SWIDTH 291 0
DWIDTH 4 0
BBX 4 10 1 -2
BITMAP
C0
00
40
C0
40
40
40
E0
40
30
ENDCHAR

STARTCHAR ccaron
ENCODING 232
SWIDTH 444 0
DWIDTH 6 0
BBX 5 9 1 0
BITMAP
50
20
00
78
88
80
80
88
70
ENDCHAR

STARTCHAR eacute
ENCODING 233
SWIDTH 479 0
DWIDTH 6 0
BBX 5 9 1 0
BITMAP
10
20
00
70
88
F8
80
88
70
ENDCHAR

STARTCHAR eogonek
ENCODING 234
SWIDTH 479 0
DWIDTH 6 0
BBX 5 8 1 -2
BITMAP
70
88
F8
80
88
70
20
18
ENDCHAR

STARTCHAR edieresis
ENCODING 235
SWIDTH 479 0
DWIDTH 6 0
BBX 5 8 1 0
BITMAP
48
00
70
88
F8
80
88
70
ENDCHAR

STARTCHAR edotaccent
ENCODING 236
SWIDTH 479 0
DWIDTH 6 0
BBX 5 8 1 0
BITMAP
20
00
70
88
F8
80
88
70
ENDCHAR

STARTCHAR iacute
ENCODING 237
SWIDTH 287 0
DWIDTH 4 0
BBX 3 9 1 0
BITMAP
20
40
00
40
C0
40
40
40
E0
ENDCHAR

STARTCHAR icircumflex
ENCODING 238
SWIDTH 287 0
DWIDTH 4 0
BBX 3 9 1 0
BITMAP
40
A0
00
40
C0
40
40
40
E0
ENDCHAR

STARTCHAR imacron
ENCODING 239
SWIDTH 287 0
DWIDTH 4 0
BBX 3 8 1 0
BITMAP
E0
00
40
C0
40
40
40
E0
ENDCHAR

STARTCHAR dcroat
ENCODING 240
SWIDTH 611 0
DWIDTH 8 0
BBX 7 10 1 0
BITMAP
04
0E
04
04
74
8C
84
84
8C
76
ENDCHAR

STARTCHAR ncommaaccent
ENCODING 241
SWIDTH 582 0
DWIDTH 8 0
BBX 7 10 1 -4
BITMAP
58
E4
44
44
44
E6
00
10
10
20
ENDCHAR

STARTCHAR omacron
ENCODING 242
SWIDTH 546 0
DWIDTH 7 0
BBX 6 8 1 0
BITMAP
38
00
78
84
84
84
84
78
ENDCHAR

STARTCHAR kcommaaccent
ENCODING 243
SWIDTH 556 0
DWIDTH 7 0
BBX 6 14 1 -4
BITMAP
40
C0
40
40
4C
50
60
50
48
EC
00
20
20
40
ENDCHAR

STARTCHAR ocircumflex
ENCODING 244
SWIDTH 546 0
DWIDTH 7 0
BBX 6 9 1 0
BITMAP
10
28
00
78
84
84
84
84
78
ENDCHAR

STARTCHAR otilde
ENCODING 245
SWIDTH 546 0
DWIDTH 7 0
BBX 6 9 1 0
BITMAP
34
58
00
78
84
84
84
84
78
ENDCHAR

STARTCHAR odieresis
ENCODING 246
SWIDTH 546 0
DWIDTH 7 0
BBX 6 8 1 0
BITMAP
48
00
78
84
84
84
84
78
ENDCHAR

STARTCHAR divide
ENCODING 247
SWIDTH 606 0
DWIDTH 8 0
BBX 7 5 0 2
BITMAP
10
00
FE
00
10
ENDCHAR

STARTCHAR oslash
ENCODING 248
SWIDTH 556 0
DWIDTH 7 0
BBX 6 6 1 0
BITMAP
74
8C
94
A4
C4
B8
ENDCHAR

STARTCHAR uogonek
ENCODING 249
SWIDTH 603 0
DWIDTH 8 0
BBX 8 8 1 -2
BITMAP
44
CC
44
44
4C
36
04
03
ENDCHAR

STARTCHAR uacute
ENCODING 250
SWIDTH 603 0
DWIDTH 8 0
BBX 7 9 1 0
BITMAP
08
10
00
44
CC
44
44
4C
36
ENDCHAR

STARTCHAR ucircumflex
ENCODING 251
SWIDTH 603 0
DWIDTH 8 0
BBX 7 9 1 0
BITMAP
10
28
00
44
CC
44
44
4C
36
ENDCHAR

STARTCHAR udieresis
ENCODING 252
SWIDTH 603 0
DWIDTH 8 0
BBX 7 8 1 0
BITMAP
24
00
44
CC
44
44
4C
36
ENDCHAR

STARTCHAR utilde
ENCODING 253
SWIDTH 603 0
DWIDTH 8 0
BBX 7 9 1 0
BITMAP
34
58
00
44
CC
44
44
4C
36
ENDCHAR

STARTCHAR umacron
ENCODING 254
SWIDTH 603 0
DWIDTH 8 0
BBX 7 8 1 0
BITMAP
38
00
44
CC
44
44
4C
36
ENDCHAR

STARTCHAR dotaccent
ENCODING 255
SWIDTH 250 0
DWIDTH 3 0
BBX 1 1 1 7
BITMAP
80
ENDCHAR
ENDFONT
